{"title":"UFC Fight Night 71 Preliminary Fights 720p HDTV x264-CHAMPiONS -","uid":12130456,"size":2808965386,"categoryP":"video","categoryS":"hd___tv_shows","magnet":"?xt=urn:btih:b1e8ba82fe6ce965379cd5dd5cf4798f5339584d&amp;dn=UFC+Fight+Night+71+Preliminary+Fights+720p+HDTV+x264-CHAMPiONS+-&amp;tr=udp%3A%2F%2Ftracker.openbittorrent.com%3A80&amp;tr=udp%3A%2F%2Fopen.demonii.com%3A1337&amp;tr=udp%3A%2F%2Ftracker.coppersurfer.tk%3A6969&amp;tr=udp%3A%2F%2Fexodus.desync.com%3A6969","seeders":3,"leechers":1,"uploader":"CenaCme","files":3,"time":1437024276,"description":"____ _ _ __ __ _____ _ ____ _ _ _____\n/ ____| | | | | / | / | | __  (_) / __  |  | | / ____|\n| | | |__| | /  |  / | | |__) | _ | | | | | | | | (___\n| | | __ | / /  | |/| | | ___/ | | | | | | | . ` | ___ \n| |____ | | | | / ____  | | | | | | | | | |__| | | | | ____) |\n_____| |_| |_| /_/ _ |_| |_| |_| |_| ____/ |_| _| |_____/\n\nPresent\n\nUFC.Fight.Night.71.Preliminary.Fights.720p.HDTV.x264-CHAMPiONS\n\nRelease Date 2015.07.16\nAir Date 2015.07.16\nGenre Hugging\n\nCoverage of preliminary bouts ahead of UFC Fight Night 71, from the\nValley View Casino Centre in San Diego, California\n\nEnjoy!\n\nCHAMPiONS is a sports rls group bringing you all the action\nfrom the worlds of Formula1, MotoGP, Football, UFC and WWE\nWe aim to bring you quality encodes and fast releases\nWe encode at 50fps and release in 720p &amp; 1080p\n\nWe are looking for\n\n* GBiT.eu 30TB+ minimum, private sites\n* Programmers who can build private tools\n* An Ascii Artist to help design the nfo\n\nGot anything to offer, contact us at\n\nchamptv(at)hushmail.com\n\nGreetings to W4F and C4TV o/\n\n\n\nufc.fight.night.71.preliminary.fights.720p.hdtv.x264-champions.mkv\nFormat                                   : Matroska\nFormat version                           : Version 4 / Version 2\nFile size                                : 2.62 GiB\nDuration                                 : 1h 37mn\nOverall bit rate                         : 3 850 Kbps\nEncoded date                             : UTC 2015-07-16 02:26:19\nWriting application                      : mkvmerge v6.9.1 ('Blue Panther') 32bit built on Apr 18 2014 18:15:44\nWriting library                          : Lavf56.25.101\n\nVideo\nID                                       : 1\nFormat                                   : AVC\nFormat/Info                              : Advanced Video Codec\nFormat profile                           : &lt;a class=&quot;__cf_email__&quot; href=&quot;/cdn-cgi/l/email-protection&quot; data-cfemail=&quot;4800212f2008047c6679&quot;&gt;[email&amp;#160;protected]&lt;/a&gt;&lt;script data-cfhash='f9e31' type=&quot;text/javascript&quot;&gt;\n/* &lt;![CDATA[ */!function(){try{var t=&quot;currentScript&quot;in document?document.currentScript:function(){for(var t=document.getElementsByTagName(&quot;script&quot;),e=t.length;e--;)if(t[e].getAttribute(&quot;data-cfhash&quot;))return t[e]}();if(t&amp;&amp;t.previousSibling){var e,r,n,i,c=t.previousSibling,a=c.getAttribute(&quot;data-cfemail&quot;);if(a){for(e=&quot;&quot;,r=parseInt(a.substr(0,2),16),n=2;a.length-n;n+=2)i=parseInt(a.substr(n,2),16)^r,e+=String.fromCharCode(i);e=document.createTextNode(e),c.parentNode.replaceChild(e,c)}t.parentNode.removeChild(t);}}catch(u){}}()/* ]]&gt; */&lt;/script&gt;\nFormat settings, CABAC                   : Yes\nFormat settings, ReFrames                : 5 frames\nCodec ID                                 : V_MPEG4/ISO/AVC\nDuration                                 : 1h 37mn\nBit rate                                 : 3 582 Kbps\nWidth                                    : 1 280 pixels\nHeight                                   : 720 pixels\nDisplay aspect ratio                     : 16:9\nFrame rate mode                          : Constant\nFrame rate                               : 50.000 fps\nColor space                              : YUV\nChroma subsampling                       : 4:2:0\nBit depth                                : 8 bits\nScan type                                : Progressive\nBits/(Pixel*Frame)                       : 0.078\nStream size                              : 2.43 GiB (93%)\nWriting library                          : x264 core 146 r2538 121396c\nEncoding settings                        : cabac=1 / ref=5 / deblock=1:0:0 / analyse=0x3:0x113 / me=umh / subme=8 / psy=1 / psy_rd=1.00:0.00 / mixed_ref=1 / me_range=16 / chroma_me=1 / trellis=1 / 8x8dct=1 / cqm=0 / deadzone=21,11 / fast_pskip=1 / chroma_qp_offset=-2 / threads=12 / lookahead_threads=2 / sliced_threads=0 / nr=0 / decimate=1 / interlaced=0 / bluray_compat=0 / constrained_intra=0 / bframes=3 / b_pyramid=2 / b_adapt=2 / b_bias=0 / direct=3 / weightb=1 / open_gop=0 / weightp=2 / keyint=250 / keyint_min=25 / scenecut=40 / intra_refresh=0 / rc_lookahead=50 / rc=crf / mbtree=1 / crf=23.0 / qcomp=0.60 / qpmin=0 / qpmax=69 / qpstep=4 / ip_ratio=1.40 / aq=1:1.00\nDefault                                  : Yes\nForced                                   : No\nMatrix coefficients                      : BT.709\n\nAudio\nID                                       : 2\nFormat                                   : AC-3\nFormat/Info                              : Audio Coding 3\nMode extension                           : CM (complete main)\nFormat settings, Endianness              : Big\nCodec ID                                 : A_AC3\nDuration                                 : 1h 37mn\nBit rate mode                            : Constant\nBit rate                                 : 192 Kbps\nChannel(s)                               : 2 channels\nChannel positions                        : Front: L R\nSampling rate                            : 48.0 KHz\nBit depth                                : 16 bits\nCompression mode                         : Lossy\nStream size                              : 134 MiB (5%)\nLanguage                                 : English\nDefault                                  : Yes\nForced                                   : No\n\n\nScreens:\n &lt;a href=&quot;\nhttp://imgsparrow.co/image/iT&quot; rel=&quot;nofollow&quot; target=&quot;_NEW&quot;&gt;\nhttp://imgsparrow.co/image/iT&lt;/a&gt;","torrent":{"xt":"urn:btih:b1e8ba82fe6ce965379cd5dd5cf4798f5339584d","amp;dn":"UFC+Fight+Night+71+Preliminary+Fights+720p+HDTV+x264-CHAMPiONS+-","amp;tr":["udp%3A%2F%2Ftracker.openbittorrent.com%3A80","udp%3A%2F%2Fopen.demonii.com%3A1337","udp%3A%2F%2Ftracker.coppersurfer.tk%3A6969","udp%3A%2F%2Fexodus.desync.com%3A6969"],"infoHash":"b1e8ba82fe6ce965379cd5dd5cf4798f5339584d","infoHashBuffer":{"type":"Buffer","data":[177,232,186,130,254,108,233,101,55,156,213,221,92,244,121,143,83,57,88,77]},"announce":[],"urlList":[]}}